<svg width="29" height="36" viewBox="0 0 29 36" fill="none" xmlns="http://www.w3.org/2000/svg">
<path d="M23.864 17.336C25.528 18.168 26.792 19.256 27.656 20.6C28.552 21.944 29 23.496 29 25.256C29 27.336 28.408 29.16 27.224 30.728C26.04 32.264 24.376 33.464 22.232 34.328C20.088 35.16 17.608 35.576 14.792 35.576C11.976 35.576 9.496 35.16 7.352 34.328C5.24 33.464 3.592 32.264 2.408 30.728C1.256 29.16 0.68 27.336 0.68 25.256C0.68 23.496 1.112 21.944 1.976 20.6C2.872 19.256 4.136 18.168 5.768 17.336C4.52 16.568 3.56 15.608 2.888 14.456C2.216 13.272 1.88 11.928 1.88 10.424C1.88 8.472 2.424 6.776 3.512 5.336C4.6 3.896 6.12 2.792 8.072 2.024C10.024 1.224 12.264 0.823999 14.792 0.823999C17.352 0.823999 19.608 1.224 21.56 2.024C23.544 2.792 25.08 3.896 26.168 5.336C27.256 6.776 27.8 8.472 27.8 10.424C27.8 11.928 27.464 13.272 26.792 14.456C26.12 15.608 25.144 16.568 23.864 17.336ZM14.792 6.536C13.224 6.536 11.96 6.92 11 7.688C10.072 8.424 9.608 9.448 9.608 10.76C9.608 12.04 10.072 13.048 11 13.784C11.928 14.52 13.192 14.888 14.792 14.888C16.392 14.888 17.672 14.52 18.632 13.784C19.592 13.048 20.072 12.04 20.072 10.76C20.072 9.448 19.592 8.424 18.632 7.688C17.672 6.92 16.392 6.536 14.792 6.536ZM14.792 29.864C16.744 29.864 18.28 29.432 19.4 28.568C20.552 27.672 21.128 26.488 21.128 25.016C21.128 23.544 20.552 22.376 19.4 21.512C18.28 20.648 16.744 20.216 14.792 20.216C12.872 20.216 11.352 20.648 10.232 21.512C9.112 22.376 8.552 23.544 8.552 25.016C8.552 26.52 9.112 27.704 10.232 28.568C11.352 29.432 12.872 29.864 14.792 29.864Z" fill="black"/>
</svg>
